<?xml version="1.0" encoding="UTF-8"?>
<svg xmlns="http://www.w3.org/2000/svg" xmlns:xlink="http://www.w3.org/1999/xlink" width="32px" height="32px" viewBox="0 0 32 32" version="1.1">
<g id="surface1">
<path style=" stroke:none;fill-rule:nonzero;fill:rgb(100%,100%,100%);fill-opacity:1;" d="M 13.582031 2.851562 C 14.050781 3.140625 14.199219 3.753906 13.914062 4.226562 C 13.703125 4.566406 13.757812 5.011719 14.039062 5.292969 L 14.171875 5.421875 C 14.953125 6.207031 15.246094 7.359375 14.921875 8.421875 C 14.761719 8.953125 14.203125 9.25 13.675781 9.09375 C 13.148438 8.933594 12.851562 8.371094 13.011719 7.84375 C 13.117188 7.488281 13.019531 7.101562 12.753906 6.835938 L 12.625 6.707031 C 11.691406 5.769531 11.515625 4.3125 12.207031 3.183594 C 12.496094 2.710938 13.109375 2.566406 13.582031 2.851562 Z M 13.582031 2.851562 "/>
<path style=" stroke:none;fill-rule:nonzero;fill:rgb(100%,100%,100%);fill-opacity:1;" d="M 23.585938 6.296875 C 24.128906 6.402344 24.476562 6.929688 24.371094 7.472656 L 24.175781 8.433594 C 23.914062 9.753906 22.960938 10.828125 21.683594 11.257812 C 21.085938 11.453125 20.640625 11.960938 20.515625 12.578125 L 20.328125 13.539062 C 20.21875 14.078125 19.691406 14.429688 19.148438 14.324219 C 18.609375 14.210938 18.257812 13.6875 18.363281 13.144531 L 18.558594 12.183594 C 18.824219 10.863281 19.773438 9.785156 21.050781 9.359375 C 21.648438 9.160156 22.09375 8.65625 22.21875 8.039062 L 22.40625 7.078125 C 22.515625 6.539062 23.046875 6.1875 23.585938 6.296875 Z M 23.585938 6.296875 "/>
<path style=" stroke:none;fill-rule:nonzero;fill:rgb(100%,100%,100%);fill-opacity:1;" d="M 28.546875 18.078125 C 28.0625 17.867188 27.503906 17.957031 27.109375 18.304688 C 26.027344 19.261719 24.457031 19.421875 23.210938 18.699219 L 22.925781 18.539062 C 22.449219 18.261719 22.28125 17.648438 22.558594 17.171875 C 22.835938 16.691406 23.449219 16.527344 23.925781 16.804688 L 24.210938 16.96875 C 24.710938 17.261719 25.34375 17.195312 25.78125 16.808594 C 26.757812 15.941406 28.148438 15.722656 29.34375 16.246094 L 29.734375 16.417969 C 30.238281 16.636719 30.472656 17.226562 30.25 17.734375 C 30.03125 18.238281 29.441406 18.46875 28.933594 18.25 Z M 28.546875 18.078125 "/>
<path style=" stroke:none;fill-rule:nonzero;fill:rgb(100%,100%,100%);fill-opacity:1;" d="M 9.238281 5.253906 C 9.515625 4.976562 9.96875 4.976562 10.246094 5.253906 C 10.527344 5.53125 10.527344 5.984375 10.246094 6.265625 C 9.96875 6.546875 9.515625 6.546875 9.238281 6.265625 C 8.957031 5.984375 8.957031 5.53125 9.238281 5.253906 Z M 9.238281 5.253906 "/>
<path style=" stroke:none;fill-rule:nonzero;fill:rgb(100%,100%,100%);fill-opacity:1;" d="M 17.21875 9.542969 C 16.941406 9.261719 16.488281 9.261719 16.210938 9.542969 C 15.929688 9.824219 15.929688 10.273438 16.210938 10.554688 C 16.488281 10.832031 16.941406 10.832031 17.21875 10.554688 C 17.5 10.273438 17.5 9.824219 17.21875 9.542969 Z M 17.21875 9.542969 "/>
<path style=" stroke:none;fill-rule:nonzero;fill:rgb(100%,100%,100%);fill-opacity:1;" d="M 22.875 13.542969 C 23.15625 13.261719 23.609375 13.261719 23.886719 13.542969 C 24.167969 13.824219 24.167969 14.273438 23.886719 14.554688 C 23.609375 14.832031 23.15625 14.832031 22.875 14.554688 C 22.597656 14.273438 22.597656 13.824219 22.875 13.542969 Z M 22.875 13.542969 "/>
<path style=" stroke:none;fill-rule:nonzero;fill:rgb(100%,100%,100%);fill-opacity:1;" d="M 26.421875 20.417969 C 26.140625 20.136719 25.691406 20.136719 25.410156 20.417969 C 25.132812 20.699219 25.132812 21.148438 25.410156 21.429688 C 25.691406 21.707031 26.140625 21.707031 26.421875 21.429688 C 26.703125 21.148438 26.703125 20.699219 26.421875 20.417969 Z M 26.421875 20.417969 "/>
<path style=" stroke:none;fill-rule:nonzero;fill:rgb(100%,100%,100%);fill-opacity:1;" d="M 9.960938 26.988281 C 6.949219 27.984375 5.359375 28.398438 4.480469 27.519531 C 3.503906 26.546875 4.121094 24.703125 5.351562 21.015625 L 7.601562 14.257812 C 8.445312 11.730469 8.941406 10.246094 9.765625 9.640625 L 9.761719 9.675781 C 9.75 9.726562 9.734375 9.796875 9.71875 9.886719 C 9.683594 10.066406 9.632812 10.324219 9.574219 10.648438 C 9.457031 11.296875 9.304688 12.203125 9.160156 13.234375 C 8.871094 15.277344 8.609375 17.890625 8.746094 19.976562 C 8.828125 21.238281 9.089844 22.808594 9.324219 24.03125 C 9.441406 24.648438 9.558594 25.191406 9.640625 25.578125 C 9.683594 25.773438 9.71875 25.925781 9.738281 26.035156 L 9.769531 26.160156 Z M 9.960938 26.988281 "/>
<path style=" stroke:none;fill-rule:nonzero;fill:rgb(100%,100%,100%);fill-opacity:1;" d="M 17.386719 24.515625 L 17.738281 24.398438 C 20.804688 23.375 22.335938 22.863281 22.621094 21.65625 C 22.90625 20.449219 21.765625 19.304688 19.484375 17.023438 L 17.230469 14.769531 L 17.222656 14.789062 C 17.199219 14.871094 17.160156 14.992188 17.113281 15.144531 C 17.023438 15.453125 16.898438 15.878906 16.777344 16.367188 C 16.53125 17.363281 16.300781 18.53125 16.300781 19.40625 C 16.300781 20.285156 16.53125 21.449219 16.777344 22.449219 C 16.898438 22.933594 17.023438 23.363281 17.113281 23.667969 C 17.160156 23.820312 17.199219 23.941406 17.222656 24.023438 C 17.238281 24.066406 17.246094 24.097656 17.253906 24.117188 L 17.261719 24.140625 L 17.261719 24.144531 Z M 17.386719 24.515625 "/>
<path style=" stroke:none;fill-rule:nonzero;fill:rgb(100%,100%,100%);fill-opacity:1;" d="M 11.734375 10.003906 L 11.800781 9.675781 C 12.617188 10.15625 13.585938 11.125 14.976562 12.515625 L 15.648438 13.1875 L 15.363281 14.039062 L 15.351562 14.078125 C 15.34375 14.101562 15.332031 14.136719 15.316406 14.183594 C 15.289062 14.273438 15.246094 14.40625 15.199219 14.574219 C 15.101562 14.898438 14.96875 15.359375 14.835938 15.882812 C 14.582031 16.90625 14.300781 18.269531 14.300781 19.40625 C 14.300781 20.542969 14.582031 21.90625 14.835938 22.929688 C 14.96875 23.453125 15.101562 23.914062 15.199219 24.242188 C 15.246094 24.40625 15.289062 24.539062 15.316406 24.628906 C 15.332031 24.675781 15.34375 24.710938 15.351562 24.734375 L 15.488281 25.148438 L 11.867188 26.355469 L 11.726562 25.742188 L 11.71875 25.710938 L 11.691406 25.59375 C 11.671875 25.492188 11.636719 25.34375 11.59375 25.15625 C 11.515625 24.78125 11.40625 24.253906 11.289062 23.65625 C 11.058594 22.445312 10.816406 20.980469 10.738281 19.847656 C 10.617188 17.976562 10.859375 15.53125 11.140625 13.511719 C 11.28125 12.511719 11.429688 11.632812 11.542969 11.003906 C 11.601562 10.691406 11.648438 10.4375 11.679688 10.265625 C 11.699219 10.179688 11.710938 10.113281 11.71875 10.070312 L 11.734375 10.007812 Z M 11.734375 10.003906 "/>
<path style=" stroke:none;fill-rule:nonzero;fill:rgb(100%,100%,100%);fill-opacity:1;" d="M 19.9375 2.949219 C 20.140625 2.921875 20.511719 2.90625 20.800781 3.199219 C 21.09375 3.492188 21.082031 3.863281 21.054688 4.066406 C 21.03125 4.253906 20.964844 4.484375 20.902344 4.703125 L 20.855469 4.871094 L 20.941406 5.007812 C 21.058594 5.191406 21.183594 5.390625 21.261719 5.566406 C 21.347656 5.765625 21.445312 6.101562 21.261719 6.453125 C 21.078125 6.800781 20.753906 6.914062 20.546875 6.960938 C 20.355469 7.003906 20.121094 7.023438 19.894531 7.042969 L 19.726562 7.054688 L 19.710938 7.054688 L 19.585938 7.203125 C 19.441406 7.382812 19.289062 7.566406 19.148438 7.699219 C 18.996094 7.835938 18.710938 8.050781 18.316406 7.996094 C 17.90625 7.941406 17.691406 7.640625 17.589844 7.457031 C 17.496094 7.289062 17.414062 7.066406 17.335938 6.863281 L 17.285156 6.71875 L 17.140625 6.664062 C 16.933594 6.585938 16.710938 6.503906 16.546875 6.414062 C 16.359375 6.308594 16.0625 6.097656 16.007812 5.6875 C 15.953125 5.292969 16.164062 5.007812 16.304688 4.855469 C 16.433594 4.710938 16.621094 4.558594 16.796875 4.414062 L 16.949219 4.292969 L 16.949219 4.277344 L 16.960938 4.109375 C 16.976562 3.882812 16.996094 3.648438 17.039062 3.457031 C 17.085938 3.25 17.199219 2.925781 17.546875 2.742188 C 17.898438 2.558594 18.238281 2.65625 18.433594 2.742188 C 18.613281 2.820312 18.808594 2.945312 18.996094 3.058594 L 19.132812 3.148438 L 19.300781 3.101562 C 19.515625 3.039062 19.746094 2.972656 19.9375 2.949219 Z M 19.9375 2.949219 "/>
<path style=" stroke:none;fill-rule:nonzero;fill:rgb(100%,100%,100%);fill-opacity:1;" d="M 29.519531 13.988281 C 30.140625 13.367188 30.371094 12.527344 30.03125 11.789062 C 29.773438 11.230469 29.25 10.863281 28.605469 10.726562 C 28.46875 10.085938 28.105469 9.558594 27.546875 9.300781 C 26.804688 8.960938 25.96875 9.191406 25.34375 9.816406 C 24.984375 10.175781 24.820312 10.660156 24.742188 11.089844 C 24.664062 11.53125 24.664062 11.996094 24.691406 12.40625 C 24.714844 12.816406 24.773438 13.195312 24.820312 13.46875 C 24.84375 13.609375 24.871094 13.71875 24.886719 13.800781 C 24.894531 13.839844 24.902344 13.871094 24.90625 13.890625 C 24.96875 14.132812 25.164062 14.359375 25.402344 14.417969 L 25.40625 14.417969 L 25.441406 14.425781 C 25.460938 14.433594 25.496094 14.441406 25.535156 14.449219 C 25.613281 14.464844 25.726562 14.488281 25.863281 14.511719 C 26.136719 14.5625 26.515625 14.617188 26.925781 14.644531 C 27.335938 14.671875 27.800781 14.671875 28.242188 14.589844 C 28.675781 14.515625 29.15625 14.351562 29.519531 13.988281 Z M 29.519531 13.988281 "/>
</g>
</svg>
